/* XPM */
static char * link_xpm[] = {
"16 16 9 1",
" 	c None",
".	c #909000",
"+	c #000000",
"@	c #EFE8EF",
"#	c #FFF8CF",
"$	c #FFF890",
"%	c #CFC860",
"&	c #FFC890",
"*	c #FFFFFF",
"                ",
"  .....+        ",
" .@##$$.+       ",
".%%%%%%%......  ",
".###########$%+ ",
".#$$$$$$$$$$&%+ ",
".#$$$$$++++++++ ",
".#$$$$$+******+ ",
".#$$$$$+*++++*+ ",
".#$$$$$+*+++**+ ",
".#$$$&$+*+*+**+ ",
".#&$&$&+*+*++*+ ",
".%%%%%%+****+*+ ",
" ++++++++++++++ ",
"                ",
"                "};
