/* XPM */
static char * icons_xpm[] = {
"256 14 6 1",
" 	c None",
".	c #000000",
"+	c #3F4CDB",
"@	c #24C15E",
"#	c #FF0000",
"$	c #FFFFFF",
"        ..             .....                         .+.             .+.                              .+.                                                                                                                                                       ",
"        .@.          ..#####..           ..          .+.             .+.                              .+.                                                                                                                                                       ",
"        .@@.        .#########.          .+.         .+. ..          .+.                              .+.                                                                                                                                                       ",
"  .......@@@.       .#$$###$$#.          .++.        .+. .+.         .+.                              .+.                                                                                                                                                       ",
"  .@@@@@@@@@@.     .##$$$#$$$##.        ..+++.       .++..++.        .++.                             .+.                                                                                                                                                       ",
"  .@@@@@@@@@@@.    .###$$$$$###.       .++++++.      .+++.+++.        .++.               .......      .+.                                                                                                                                                       ",
"  .@@@@@@@@@@@@.   .####$$$####.      .++++++++.      .+++++++.       .+++......       ..++++++.      .+.                                                                                                                                                       ",
"  .@@@@@@@@@@@.    .###$$$$$###.      .+++++++.       .++++++++.       ..++++++.      .+++......      .+.                                                                                                                                                       ",
"  .@@@@@@@@@@.     .##$$$#$$$##.     .+++.+++.         .++++++.          .......      .++.            .+.                                                                                                                                                       ",
"  .......@@@.      ..#$$###$$#.      .++..++.           ..+++.                       .++.             .+.                                                                                                                                                       ",
"        .@@.        .#########.      .+. .+.             .++.                        .+.              .+.                                                                                                                                                       ",
"        .@.          ..#####..       .+. ..              .+.                         .+.              .+.                                                                                                                                                       ",
"        ..             .....         .+.                 ..                          .+.              .+.                                                                                                                                                       ",
"                                     .+.                                             .+.              .+.                                                                                                                                                       "};
