/* XPM */
static char * lock_xpm[] = {
"16 16 10 1",
" 	c None",
".	c #909000",
"+	c #000000",
"@	c #EFE8EF",
"#	c #FFF8CF",
"$	c #FFF890",
"%	c #CFC860",
"&	c #FFC890",
"*	c #FF0000",
"=	c #FFFFFF",
"                ",
"  .....+        ",
" .@##$$.+       ",
".%%%%%%%......  ",
".###########$%+ ",
".#$$$$$$$$$$&%+ ",
".#$$$$***&$&$%+ ",
".#$$$*****&$&%+ ",
".#$$$*===*$&$%+ ",
".#$$$*****&$&%+ ",
".#$$$&***&$&&%+ ",
".#&$&$&$&$&&&%+ ",
".%%%%%%%%%%%%%+ ",
" ++++++++++++++ ",
"                ",
"                "};
